<svg version="1.1" id="Layer_1" xmlns="http://www.w3.org/2000/svg" xmlns:xlink="http://www.w3.org/1999/xlink" x="0px" y="0px"
	 width="100%" viewBox="0 0 800 800" enable-background="new 0 0 800 800" xml:space="preserve">
<path fill="#000000" opacity="1.000000" stroke="none" 
	d="
M801.000000,356.531342 
	C799.522217,355.420624 797.424500,354.338074 795.606995,355.120697 
	C790.476624,357.329926 784.543701,357.561157 780.077637,361.371948 
	C776.404297,364.506348 774.946899,364.021454 774.168091,359.124908 
	C772.338440,347.620300 770.772217,336.072723 768.853149,324.583618 
	C764.697815,299.706421 757.639526,275.607666 748.344666,252.205154 
	C732.023987,211.113419 709.266296,173.912140 679.966980,140.749100 
	C650.902588,107.851852 617.229919,80.698494 578.840637,59.386566 
	C543.915771,39.997894 506.910797,26.292471 467.642395,18.920345 
	C437.110962,13.188459 406.363220,11.179103 375.251068,12.770969 
	C348.680634,14.130457 322.608612,18.109367 297.002686,24.886782 
	C267.285706,32.752312 238.932938,44.281208 212.021561,59.227940 
	C174.704895,79.953827 141.709396,106.203697 113.186310,137.890457 
	C90.351112,163.258423 71.356087,191.346542 55.960007,221.883652 
	C42.096916,249.380173 31.474251,278.079681 24.913195,308.082397 
	C15.973481,348.962341 13.067893,390.223755 17.792080,432.100311 
	C21.210018,462.397858 27.753439,491.762939 37.914207,520.391846 
	C50.533035,555.946594 68.249557,588.806030 90.816223,619.039917 
	C130.515961,672.228027 180.696594,712.482666 241.161621,739.679321 
	C269.001404,752.201355 298.092133,760.942200 328.269043,766.278564 
	C349.173828,769.975220 370.203156,771.640015 391.310486,772.430603 
	C408.124420,773.060425 424.906921,771.287292 441.622192,769.415771 
	C465.001770,766.798218 487.880341,761.679749 510.255066,754.511841 
	C530.726929,747.953613 550.620972,739.874512 569.686340,729.869507 
	C608.233704,709.640808 642.559265,683.818054 672.305603,652.008972 
	C708.643311,613.151428 735.666565,568.582397 753.477356,518.465088 
	C757.486267,507.184418 761.119934,495.761963 763.863586,484.084534 
	C764.285889,482.287476 764.703247,480.159821 766.710022,479.737579 
	C769.011169,479.253296 769.530701,481.600708 770.483887,483.082458 
	C773.724731,488.120575 776.945740,493.171387 780.192810,498.205383 
	C781.504700,500.239197 783.284607,501.996887 785.654114,502.294067 
	C792.145142,503.108215 795.566589,507.873535 799.577698,512.582947 
	C799.981079,511.765472 800.318970,511.080780 800.828369,510.198059 
	C801.000000,606.986145 801.000000,703.972229 801.000000,800.979187 
	C534.385376,800.979187 267.770752,800.979187 1.078067,800.979187 
	C1.078067,534.423584 1.078067,267.847107 1.078067,1.135311 
	C267.666626,1.135311 534.333313,1.135311 801.000000,1.135311 
	C801.000000,119.430771 801.000000,237.746735 801.000000,356.531342 
z"/>
<path fill="#000000" opacity="1.000000" stroke="none" 
	d="
M474.610413,472.423218 
	C457.460571,448.511871 440.499695,424.910614 422.991669,400.547974 
	C417.128326,408.565247 411.816986,415.732788 406.605835,422.972473 
	C394.743103,439.453033 382.929230,455.968781 371.096039,472.470581 
	C367.926086,476.891205 362.981232,478.609680 357.463501,477.211090 
	C354.309143,476.411560 354.423126,474.527771 355.978058,472.370941 
	C363.859741,461.438507 371.780670,450.534332 379.697144,439.627014 
	C390.749207,424.399445 401.750610,409.134460 412.919495,393.993042 
	C414.972839,391.209351 414.153168,389.177429 412.481049,386.849152 
	C400.339111,369.942474 388.222931,353.017334 376.102020,336.095581 
	C370.773712,328.656769 365.445831,321.217682 360.133789,313.767303 
	C358.220825,311.084290 358.940735,309.095184 362.176941,308.979431 
	C370.049408,308.697937 370.901886,308.142426 375.621216,314.828217 
	C390.114258,335.360199 404.884735,355.696472 419.568909,376.093292 
	C420.430145,377.289612 421.481720,378.348907 422.399170,379.418823 
	C424.947388,379.104828 425.772461,377.076111 426.893524,375.537445 
	C448.851685,345.399963 470.436310,314.988983 493.433441,285.617371 
	C508.926483,265.829865 524.231018,245.894836 539.630615,226.034103 
	C541.105347,224.132111 542.470886,222.011017 545.987915,221.832199 
	C544.044373,228.568130 539.591248,233.217819 536.138000,238.304840 
	C524.548035,255.378342 512.464539,272.115814 500.741577,289.100372 
	C478.241913,321.698578 455.885132,354.395447 433.384460,386.993011 
	C431.451202,389.793793 431.663971,391.804657 433.636322,394.517822 
	C450.762115,418.076355 467.744141,441.739380 484.769867,465.370667 
	C486.518951,467.798370 488.339722,470.177612 490.007874,472.659576 
	C491.664093,475.123810 491.002686,476.934601 487.992706,477.160370 
	C483.036377,477.532074 477.833069,478.250916 474.610413,472.423218 
z"/>
<path fill="#000000" opacity="1.000000" stroke="none" 
	d="
M275.000000,308.786682 
	C298.328735,308.802216 321.157471,308.843811 343.986145,308.805786 
	C347.591553,308.799774 350.207672,309.509247 350.353851,313.869049 
	C350.516327,318.714966 349.265686,320.064911 343.721497,320.074463 
	C321.059448,320.113525 298.397339,320.110687 275.735229,320.128418 
	C268.736694,320.133911 261.736115,320.260773 254.740479,320.125092 
	C251.304138,320.058472 249.947922,321.447571 249.961777,324.836426 
	C250.036057,342.998749 250.094666,361.161957 249.972778,379.323639 
	C249.942459,383.842682 252.566254,383.872040 255.840286,383.868591 
	C283.001373,383.839966 310.162567,383.878448 337.323730,383.913849 
	C340.564331,383.918091 343.823547,383.822968 344.220093,388.422577 
	C344.684174,393.805847 343.471771,395.342926 337.976288,395.346283 
	C310.815125,395.362885 283.653229,395.436829 256.493530,395.230286 
	C251.589569,395.192993 249.752899,396.483093 249.828735,401.666168 
	C250.113953,421.158112 250.066757,440.656738 249.935608,460.151459 
	C249.906799,464.432312 251.239075,465.946564 255.684250,465.923096 
	C285.343048,465.766388 315.003143,465.865875 344.662811,465.865906 
	C350.331665,465.865906 351.488007,467.062927 351.310577,472.450226 
	C351.202881,475.720062 349.871429,477.362762 346.458588,477.313385 
	C340.627747,477.229034 334.794708,477.301208 328.962585,477.301483 
	C301.134888,477.302826 273.307190,477.304047 245.479492,477.300812 
	C237.579590,477.299866 237.679611,477.292969 237.683548,469.240295 
	C237.708282,418.583862 237.685928,367.927399 237.676498,317.270966 
	C237.674942,308.958344 237.784821,308.829651 246.007248,308.812347 
	C255.504822,308.792389 265.002411,308.794159 275.000000,308.786682 
z"/>
<path fill="#000000" opacity="1.000000" stroke="none" 
	d="
M179.796326,408.250488 
	C199.276840,437.496307 218.520233,466.467590 237.816574,495.403564 
	C252.755905,517.806030 267.774139,540.155884 282.712708,562.558838 
	C283.863770,564.285034 285.370636,565.975220 285.152344,568.614746 
	C282.742859,568.949219 281.796814,567.224976 280.790955,565.892212 
	C272.070465,554.337585 263.348175,542.783691 254.734146,531.149719 
	C240.967438,512.556641 226.939484,494.143799 213.648407,475.214935 
	C195.675980,449.619080 178.286469,423.613739 160.665146,397.771667 
	C145.009125,374.811737 129.379044,351.834076 113.720192,328.876068 
	C113.568001,328.652954 113.179413,328.591095 112.099815,328.059021 
	C112.099815,331.493683 112.105148,334.563293 112.098976,337.632904 
	C112.048050,362.963135 112.263161,388.297638 111.855461,413.622162 
	C111.544395,432.944916 111.007774,452.264343 111.409378,471.586334 
	C111.522270,477.017303 108.553902,477.328369 104.414230,477.319885 
	C100.010490,477.310852 99.392044,475.228149 99.415176,471.323792 
	C99.602829,439.661957 99.561653,407.998688 99.583069,376.335876 
	C99.596474,356.504486 99.553024,336.672821 99.655647,316.841949 
	C99.669838,314.099487 98.116257,310.548920 102.222816,309.124634 
	C107.027374,307.458160 113.486870,309.037079 115.824821,312.513123 
	C122.141891,321.905304 128.375427,331.353607 134.663208,340.765533 
	C149.629669,363.168243 164.608307,385.562836 179.796326,408.250488 
z"/>
<path fill="#000000" opacity="1.000000" stroke="none" 
	d="
M564.224854,336.004578 
	C564.224731,380.997437 564.214966,425.491547 564.240356,469.985626 
	C564.242615,473.867493 564.366577,477.399933 558.768921,477.324402 
	C552.744995,477.243134 551.862488,476.599670 551.857483,469.923431 
	C551.822083,422.429840 551.803772,374.936279 551.782410,327.442688 
	C551.779175,320.201630 551.785156,320.168884 544.624939,320.157715 
	C529.793640,320.134552 514.961548,320.068970 500.131470,320.203064 
	C496.143005,320.239105 493.865692,319.357513 493.834900,314.733643 
	C493.803680,310.043823 495.880035,308.720184 500.228424,308.732147 
	C538.723022,308.838226 577.217957,308.841492 615.712769,308.797516 
	C619.815796,308.792816 622.360901,309.697449 622.401245,314.578339 
	C622.443115,319.637665 619.677246,320.180176 615.663574,320.150665 
	C600.499817,320.039246 585.333191,320.223114 570.171265,320.021362 
	C565.677551,319.961578 563.700684,321.321075 564.175293,326.012939 
	C564.492310,329.146790 564.228394,332.339447 564.224854,336.004578 
z"/>
<path fill="#000000" opacity="1.000000" stroke="none" 
	d="
M686.953247,450.680359 
	C688.602478,458.301514 683.455688,463.725525 679.298828,465.112427 
	C672.343018,467.433228 663.882812,465.376251 660.211670,460.332458 
	C658.986572,458.649292 656.990601,456.718079 659.359375,454.705811 
	C661.377197,452.991699 663.831421,453.418640 665.719604,455.192596 
	C667.733704,457.084869 669.886597,458.596954 672.696777,458.653107 
	C675.632080,458.711761 678.889038,458.293182 679.340820,454.824097 
	C679.757019,451.628845 676.544678,450.978882 674.192505,450.472778 
	C671.562500,449.906891 669.123535,448.887238 666.586365,448.114899 
	C661.526672,446.574615 659.257385,442.751343 659.079163,438.019196 
	C658.912903,433.603790 661.430847,430.243469 665.443176,428.056580 
	C671.822327,424.579681 682.021667,426.721832 685.034180,432.435791 
	C685.880676,434.041382 687.768677,435.981964 685.500122,437.764587 
	C683.339966,439.462067 681.131592,439.022858 679.347107,436.888580 
	C676.946594,434.017670 673.918335,433.172302 670.393555,434.239319 
	C668.717346,434.746735 667.347656,435.766937 667.401184,437.755341 
	C667.447266,439.465546 668.568726,440.490479 670.109070,440.964386 
	C672.173828,441.599579 674.272278,442.128876 676.366333,442.664337 
	C680.873108,443.816742 684.856384,445.673065 686.953247,450.680359 
z"/>
<path fill="#000000" opacity="1.000000" stroke="none" 
	d="
M640.211182,465.985596 
	C635.317322,465.472168 632.023193,463.235413 630.025513,459.194275 
	C629.265686,457.657166 628.766602,455.919922 630.408752,454.661163 
	C631.851685,453.555023 633.555237,453.699371 635.096252,454.629883 
	C635.794861,455.051697 636.434631,455.619843 636.987305,456.225433 
	C638.665955,458.064758 640.739258,458.402191 642.896301,457.535706 
	C645.212402,456.605377 644.972412,454.328705 644.996582,452.378235 
	C645.068665,446.564880 645.013611,440.750031 645.059998,434.936188 
	C645.071899,433.449493 645.100098,431.923523 645.434204,430.488556 
	C645.872681,428.605011 646.957886,427.064026 649.155518,427.101349 
	C651.334717,427.138275 652.727295,428.708862 652.783386,430.569092 
	C653.058105,439.669128 654.321289,448.855530 652.245056,457.845306 
	C650.902100,463.659821 646.358704,465.943665 640.211182,465.985596 
z"/>
<path fill="#000000" opacity="1.000000" stroke="none" 
	d="
M623.711487,458.336487 
	C625.322205,461.366730 624.522644,463.576935 621.918274,464.845825 
	C619.976746,465.791748 617.990784,465.280823 616.658508,463.372833 
	C615.339966,461.484528 615.469482,459.559998 617.044006,457.942261 
	C619.152466,455.775848 621.380005,455.789215 623.711487,458.336487 
z"/>
</svg>