<?xml version="1.0" standalone="no"?>
<!DOCTYPE svg PUBLIC "-//W3C//DTD SVG 20010904//EN"
 "http://www.w3.org/TR/2001/REC-SVG-20010904/DTD/svg10.dtd">
<svg version="1.0" xmlns="http://www.w3.org/2000/svg"
 width="1200.000000pt" height="1200.000000pt" viewBox="0 0 1200.000000 1200.000000"
 preserveAspectRatio="xMidYMid meet">

<g transform="translate(0.000000,1200.000000) scale(0.100000,-0.100000)"
fill="#000000" stroke="none">
<path d="M5680 10989 c-513 -33 -1051 -156 -1535 -349 -190 -76 -527 -244
-710 -355 -1323 -801 -2202 -2146 -2394 -3662 -246 -1941 672 -3844 2355
-4884 180 -111 517 -284 709 -363 1055 -435 2235 -492 3326 -161 227 69 554
197 732 287 l58 29 -19 27 c-11 15 -108 153 -217 307 -109 154 -318 449 -463
655 -146 206 -392 553 -546 770 -154 217 -332 469 -396 560 -64 91 -271 383
-460 650 -189 267 -386 546 -438 620 -53 74 -269 380 -482 680 -212 300 -401
568 -420 595 l-35 50 -5 -1210 -5 -1210 -27 -57 c-34 -74 -113 -152 -186 -186
-48 -22 -71 -26 -152 -26 -88 -1 -100 1 -162 32 -82 40 -157 119 -190 200
l-23 57 0 1830 0 1830 22 55 c33 81 110 162 191 202 61 30 74 33 162 33 84 -1
102 -4 155 -30 33 -16 80 -49 105 -75 25 -25 180 -237 344 -470 165 -234 316
-447 336 -475 20 -27 200 -282 400 -565 200 -283 412 -582 471 -665 58 -82
456 -645 884 -1250 429 -605 829 -1170 889 -1256 61 -86 291 -411 511 -722
220 -312 403 -567 406 -567 10 0 220 161 348 268 141 117 476 450 590 587 370
445 642 898 844 1410 465 1178 460 2490 -14 3673 -72 181 -242 522 -344 692
-719 1196 -1884 2037 -3232 2334 -445 98 -931 134 -1383 105z m2035 -2753 c28
-7 65 -21 84 -30 54 -28 130 -111 159 -174 l27 -57 3 -1779 2 -1778 -187 263
c-103 145 -271 383 -375 529 l-188 265 2 1240 3 1240 23 57 c71 175 266 273
447 224z"/>
</g>
</svg>
