<?xml version="1.0" standalone="no"?>
<!DOCTYPE svg PUBLIC "-//W3C//DTD SVG 20010904//EN"
 "http://www.w3.org/TR/2001/REC-SVG-20010904/DTD/svg10.dtd">
<svg version="1.0" xmlns="http://www.w3.org/2000/svg"
 width="600.000000pt" height="600.000000pt" viewBox="0 0 600.000000 600.000000"
 preserveAspectRatio="xMidYMid meet">

<g transform="translate(0.000000,600.000000) scale(0.100000,-0.100000)"
fill="#000000" stroke="none">
<path d="M1610 3624 c-109 -23 -205 -77 -291 -163 -125 -125 -178 -263 -179
-462 0 -84 -3 -102 -27 -150 -52 -102 -164 -155 -272 -129 -102 24 -172 105
-190 220 -13 83 -27 90 -178 90 -118 0 -125 -1 -148 -25 -31 -31 -33 -82 -5
-189 29 -113 73 -190 160 -276 86 -87 163 -131 276 -160 98 -25 180 -25 278 0
204 52 360 195 426 390 16 47 25 102 30 200 9 173 28 220 111 275 89 59 199
55 284 -11 l45 -34 191 0 190 0 -7 23 c-90 288 -397 465 -694 401z"/>
<path d="M3292 3625 c-209 -46 -393 -223 -447 -431 -8 -32 -18 -111 -21 -174
-7 -139 -16 -171 -62 -222 -91 -100 -234 -114 -330 -32 l-40 34 -191 0 c-156
0 -191 -3 -191 -14 0 -7 19 -51 42 -97 105 -210 328 -340 558 -326 212 14 398
133 495 318 47 89 63 158 71 297 7 141 16 173 62 224 53 59 105 82 182 82 74
0 125 -22 177 -76 51 -53 65 -99 73 -243 5 -91 14 -150 30 -195 48 -142 153
-267 279 -334 93 -49 149 -65 247 -73 252 -19 502 144 594 386 l20 51 -189 0
-189 0 -52 -35 c-51 -34 -106 -55 -146 -55 -44 0 -122 31 -161 64 -59 51 -79
108 -86 246 -11 202 -60 324 -182 445 -143 144 -345 203 -543 160z"/>
<path d="M4964 3620 c-207 -54 -368 -204 -428 -397 l-7 -23 194 0 c184 0 195
1 213 21 81 89 247 87 338 -5 45 -45 76 -115 76 -172 0 -23 8 -38 26 -53 24
-19 40 -21 151 -21 118 0 125 1 148 25 31 31 33 82 5 189 -29 113 -73 190
-160 276 -86 87 -163 131 -276 160 -95 25 -187 25 -280 0z"/>
</g>
</svg>
