<?xml version="1.0" encoding="UTF-8"?>
<svg version="1.1" xmlns="http://www.w3.org/2000/svg" width="354" height="400">
<path d="M0 0 C1.15757812 0.60714844 2.31515625 1.21429688 3.5078125 1.83984375 C4.17506348 2.18781006 4.84231445 2.53577637 5.52978516 2.89428711 C15.5896065 8.2260595 25.39101195 14.0510415 35.22167969 19.78955078 C40.68118719 22.97100727 46.15754191 26.12312078 51.6328125 29.27734375 C53.79956594 30.52719333 55.96623248 31.77719358 58.1328125 33.02734375 C59.2053125 33.64609375 60.2778125 34.26484375 61.3828125 34.90234375 C79.2578125 45.21484375 79.2578125 45.21484375 97.1328125 55.52734375 C98.206521 56.14673828 99.28022949 56.76613281 100.38647461 57.40429688 C102.54111874 58.64746675 104.69558007 59.8909535 106.84985352 61.13476562 C111.86035371 64.02717522 116.87243885 66.91669602 121.89144897 69.79431152 C123.65009999 70.80282689 125.40814459 71.81239145 127.16601562 72.82226562 C129.35753481 74.08084893 131.55015754 75.33751362 133.74414062 76.59179688 C138.74552932 79.46671202 143.71909702 82.38613728 148.63671875 85.40234375 C149.50240479 85.93085937 150.36809082 86.459375 151.26000977 87.00390625 C155.51002129 90.18037335 158.01255548 93.75792536 159.6328125 98.77734375 C159.89008141 102.18136311 159.89008141 102.18136311 159.90023804 106.15827942 C159.90476915 106.89194644 159.90930026 107.62561346 159.91396868 108.38151282 C159.9266082 110.83489131 159.92499262 113.28804768 159.92333984 115.74145508 C159.9293254 117.50259181 159.93613101 119.26372591 159.94369507 121.02485657 C159.96136012 125.80595093 159.96605068 130.5869737 159.96732664 135.36809754 C159.96874858 138.35640027 159.97301902 141.34468481 159.97832108 144.33298302 C159.99682346 154.76179535 160.00499148 165.19055656 160.00341797 175.61938477 C160.00221672 185.3345635 160.02331537 195.04952002 160.0549053 204.76464254 C160.08107391 213.11045748 160.09178501 221.45619988 160.09050715 229.80205554 C160.08999766 234.78447099 160.09567354 239.76668897 160.11686325 244.74906349 C160.13625529 249.43672941 160.13636349 254.1240097 160.12182999 258.81168938 C160.11974195 260.52893768 160.12444252 262.24621017 160.1365509 263.96341705 C160.25383962 281.7542551 160.25383962 281.7542551 153.94921875 288.60742188 C148.29433595 292.48019796 142.41631627 295.91631539 136.4375 299.26611328 C133.30885124 301.01920624 130.19057435 302.79063152 127.0703125 304.55859375 C126.43883301 304.91566406 125.80735352 305.27273438 125.15673828 305.640625 C119.28326539 308.96483171 113.45406118 312.36257879 107.6328125 315.77734375 C98.99827198 320.83438723 90.32674161 325.82341936 81.6328125 330.77734375 C72.89878675 335.75461505 64.1855345 340.76476533 55.5078125 345.83984375 C39.46715731 355.21943542 23.42106027 364.59533521 7.1953125 373.65234375 C6.46199707 374.06323242 5.72868164 374.47412109 4.97314453 374.89746094 C-0.59672007 377.98541 -4.96372517 379.45748887 -11.3671875 378.77734375 C-13.91208303 377.84614334 -16.01696351 376.92835869 -18.3671875 375.65234375 C-19.37797363 375.12543945 -19.37797363 375.12543945 -20.40917969 374.58789062 C-28.69255759 370.19714688 -36.74739357 365.38336378 -44.8203125 360.62109375 C-51.63210982 356.60736684 -58.49606665 352.68808379 -65.3671875 348.77734375 C-75.08917248 343.23879965 -84.77615386 337.6435841 -94.43408203 331.99389648 C-101.68930559 327.75117054 -108.96079226 323.53748839 -116.2421875 319.33984375 C-117.84864136 318.41341064 -117.84864136 318.41341064 -119.48754883 317.46826172 C-124.51768236 314.56859532 -129.54952448 311.67194725 -134.58456421 308.7808075 C-141.52219273 304.79695056 -148.45063163 300.79767687 -155.3671875 296.77734375 C-156.13562988 296.33213379 -156.90407227 295.88692383 -157.69580078 295.42822266 C-159.55164812 294.34759709 -161.39888085 293.25418119 -163.2421875 292.15234375 C-164.63050781 291.32863281 -164.63050781 291.32863281 -166.046875 290.48828125 C-170.29429319 287.35634663 -172.75710539 283.76246257 -174.3671875 278.77734375 C-174.62445641 275.37332439 -174.62445641 275.37332439 -174.63461304 271.39640808 C-174.63914415 270.66274106 -174.64367526 269.92907404 -174.64834368 269.17317468 C-174.6609832 266.71979619 -174.65936762 264.26663982 -174.65771484 261.81323242 C-174.6637004 260.05209569 -174.67050601 258.29096159 -174.67807007 256.52983093 C-174.69573512 251.74873657 -174.70042568 246.9677138 -174.70170164 242.18658996 C-174.70312358 239.19828723 -174.70739402 236.21000269 -174.71269608 233.22170448 C-174.73119846 222.79289215 -174.73936648 212.36413094 -174.73779297 201.93530273 C-174.73659172 192.220124 -174.75769037 182.50516748 -174.7892803 172.79004496 C-174.81544891 164.44423002 -174.82616001 156.09848762 -174.82488215 147.75263196 C-174.82437266 142.77021651 -174.83004854 137.78799853 -174.85123825 132.80562401 C-174.87063029 128.11795809 -174.87073849 123.4306778 -174.85620499 118.74299812 C-174.85411695 117.02574982 -174.85881752 115.30847733 -174.8709259 113.59127045 C-174.98826085 95.79342062 -174.98826085 95.79342062 -168.67919922 88.94506836 C-163.05972432 85.09856199 -157.22500176 81.6757444 -151.2855835 78.34542847 C-149.44161971 77.31148961 -147.60148329 76.27101233 -145.76220703 75.22875977 C-143.84843346 74.14434336 -141.93447134 73.06028066 -140.01937866 71.97819519 C-133.73822517 68.42860659 -127.48784807 64.82648147 -121.2421875 61.21484375 C-119.09637608 59.97522249 -116.95054273 58.73563918 -114.8046875 57.49609375 C-113.21527344 56.57763672 -113.21527344 56.57763672 -111.59375 55.640625 C-108.33194743 53.75699325 -105.06856906 51.87612054 -101.8046875 49.99609375 C-91.35005644 43.97294547 -80.90682444 37.93191339 -70.4921875 31.83984375 C-57.17345044 24.05336849 -43.77743164 16.40480222 -30.3671875 8.77734375 C-29.46210449 8.26139648 -28.55702148 7.74544922 -27.62451172 7.21386719 C-25.35292418 5.91952296 -23.07936904 4.62874054 -20.8046875 3.33984375 C-20.17433594 2.98043701 -19.54398438 2.62103027 -18.89453125 2.25073242 C-12.51588119 -1.34722488 -6.96598739 -2.52941305 0 0 Z " fill="#2D82C1" transform="translate(184.3671875,11.22265625)"/>
<path d="M0 0 C3.08162999 2.64005137 4.72622728 5.93616103 6.5546875 9.484375 C7.06107002 10.44922318 7.06107002 10.44922318 7.5776825 11.43356323 C8.30305128 12.81613409 9.02611595 14.19991579 9.74710083 15.58477783 C11.65819638 19.25349801 13.58811543 22.9122587 15.51953125 26.5703125 C15.90493576 27.3006369 16.29034027 28.0309613 16.68742371 28.78341675 C19.86945992 34.79429174 23.17830966 40.72551853 26.5625 46.625 C31.54810398 55.32902708 36.30698438 64.1363102 41 73 C46.28128817 82.97308387 51.6821897 92.85832619 57.27734375 102.66015625 C61.11258865 109.39082119 64.8298782 116.17802042 68.5 123 C72.69932487 130.80494559 76.98469859 138.55091046 81.375 146.25 C86.56095073 155.3505883 91.53926584 164.55320372 96.4574585 173.8001709 C100.69590952 181.76407562 105.02637354 189.66546951 109.5 197.5 C114.37030235 206.03074601 119.06803154 214.64432331 123.6875 223.3125 C128.46516648 232.27588449 133.28971042 241.20650849 138.25 250.0703125 C140.53757824 254.16006464 142.80210224 258.26237094 145.0625 262.3671875 C145.60119469 263.34520073 145.60119469 263.34520073 146.15077209 264.3429718 C147.60408348 266.98186174 149.05719074 269.62086216 150.50875854 272.26071167 C151.52454731 274.10785588 152.54148342 275.9543645 153.55859375 277.80078125 C154.14954834 278.87497314 154.74050293 279.94916504 155.34936523 281.0559082 C156.42935794 282.98219604 157.55024008 284.88625858 158.71508789 286.76245117 C160 289 160 289 160 291 C152.50944142 291.5504482 148.31333431 290.19344391 141.9375 286.375 C141.08172363 285.88354492 140.22594727 285.39208984 139.34423828 284.88574219 C136.55157848 283.27573188 133.77589472 281.63871797 131 280 C129.09334469 278.891685 127.18578155 277.78493036 125.27734375 276.6796875 C121.26732866 274.35274822 117.26422374 272.01446894 113.265625 269.66796875 C106.90228965 265.93674029 100.51650445 262.24521942 94.125 258.5625 C93.04524902 257.94020508 91.96549805 257.31791016 90.85302734 256.67675781 C88.66285466 255.41471274 86.47258757 254.15283148 84.28222656 252.89111328 C78.85340058 249.76319852 73.42680719 246.63141552 68 243.5 C65.83334417 242.24998121 63.6666775 240.99998122 61.5 239.75 C57.16666667 237.25 52.83333333 234.75 48.5 232.25 C47.4260498 231.6305249 46.35209961 231.0110498 45.24560547 230.37280273 C43.09319638 229.13080408 40.9411738 227.88813534 38.78955078 226.64477539 C33.75477462 223.73639605 28.71660822 220.83452627 23.66400146 217.95724487 C21.88180857 216.94192342 20.10088088 215.92441725 18.3203125 214.90625 C16.0910214 213.63236937 13.85939631 212.36256089 11.625 211.09765625 C7.17236704 208.54843891 2.74345089 205.96534825 -1.4921875 203.06640625 C-2.37559814 202.46421265 -2.37559814 202.46421265 -3.27685547 201.84985352 C-10.54738409 194.0446969 -9.56895639 184.64006485 -9.51757812 174.6953125 C-9.52300338 172.93373029 -9.5301283 171.17215262 -9.53881836 169.4105835 C-9.55700672 164.64196329 -9.55000275 159.87369043 -9.53730202 155.10506439 C-9.52715108 150.10665474 -9.53657351 145.10827415 -9.54284668 140.10986328 C-9.55011698 131.71706827 -9.54055156 123.32441422 -9.52148438 114.93164062 C-9.49971684 105.23853064 -9.50676865 95.54575724 -9.52879 85.85265541 C-9.54696156 77.51950011 -9.54949372 69.18644593 -9.53903532 60.85327721 C-9.53281006 55.8809902 -9.53193814 50.90886123 -9.54518127 45.93658447 C-9.55676472 41.26115469 -9.54866856 36.58615745 -9.52560425 31.91077423 C-9.52033047 30.19837409 -9.52180809 28.48593735 -9.53065491 26.77355194 C-9.60639522 10.61983699 -9.60639522 10.61983699 -5 4 C-2.25 1.5 -2.25 1.5 0 0 Z " fill="#2261A8" transform="translate(19,98)"/>
<path d="M0 0 C3.08162999 2.64005137 4.72622728 5.93616103 6.5546875 9.484375 C7.06107002 10.44922318 7.06107002 10.44922318 7.5776825 11.43356323 C8.30305128 12.81613409 9.02611595 14.19991579 9.74710083 15.58477783 C11.65819638 19.25349801 13.58811543 22.9122587 15.51953125 26.5703125 C15.90493576 27.3006369 16.29034027 28.0309613 16.68742371 28.78341675 C19.86945982 34.79429156 23.1782968 40.72552518 26.5625 46.625 C32.43421571 56.87574899 38.00549362 67.27469561 43.53344727 77.71337891 C43.85716812 78.32390106 44.18088898 78.93442322 44.51441956 79.56344604 C45.44306078 81.31863334 46.36614243 83.07675859 47.2890625 84.83496094 C49.17647486 88.32645835 51.2125091 91.70547204 53.36523438 95.03955078 C54.29900757 97.92347338 53.33244443 99.34328251 52 102 C51.20261963 103.53835334 50.37547377 105.06154458 49.5234375 106.5703125 C49.02577881 107.45283691 48.52812012 108.33536133 48.01538086 109.24462891 C47.47405518 110.19515137 46.93272949 111.14567383 46.375 112.125 C45.80595947 113.12837402 45.23691895 114.13174805 44.65063477 115.16552734 C39.50196166 124.20225736 34.20032915 133.14608382 28.87890625 142.08178711 C24.32481596 149.7367093 19.8587822 157.43513775 15.45922852 165.1796875 C11.475218 172.18729566 7.43521725 179.16128552 3.375 186.125 C2.46790283 187.68287231 2.46790283 187.68287231 1.54248047 189.2722168 C0.97932129 190.23683838 0.41616211 191.20145996 -0.1640625 192.1953125 C-0.66373535 193.05141113 -1.1634082 193.90750977 -1.67822266 194.78955078 C-2.73531047 196.55735149 -3.85745844 198.28618766 -5 200 C-10.29782464 192.14216816 -9.56459914 183.79667716 -9.51757812 174.6953125 C-9.52300338 172.93373029 -9.5301283 171.17215262 -9.53881836 169.4105835 C-9.55700672 164.64196329 -9.55000275 159.87369043 -9.53730202 155.10506439 C-9.52715108 150.10665474 -9.53657351 145.10827415 -9.54284668 140.10986328 C-9.55011698 131.71706827 -9.54055156 123.32441422 -9.52148438 114.93164062 C-9.49971684 105.23853064 -9.50676865 95.54575724 -9.52879 85.85265541 C-9.54696156 77.51950011 -9.54949372 69.18644593 -9.53903532 60.85327721 C-9.53281006 55.8809902 -9.53193814 50.90886123 -9.54518127 45.93658447 C-9.55676472 41.26115469 -9.54866856 36.58615745 -9.52560425 31.91077423 C-9.52033047 30.19837409 -9.52180809 28.48593735 -9.53065491 26.77355194 C-9.60639522 10.61983699 -9.60639522 10.61983699 -5 4 C-2.25 1.5 -2.25 1.5 0 0 Z " fill="#257BBF" transform="translate(19,98)"/>
<path d="M0 0 C2.6543908 1.75835325 4.83526484 3.6729097 7 6 C8.2375 7.299375 8.2375 7.299375 9.5 8.625 C11 11 11 11 10.98828125 12.84765625 C9.45535149 16.18617125 6.64493721 17.81839739 3.6875 19.8125 C3.10548828 20.23208984 2.52347656 20.65167969 1.92382812 21.08398438 C-2.3523737 24.02357045 -2.3523737 24.02357045 -5.25390625 23.91796875 C-8.00320172 22.4725897 -9.87702058 20.23471518 -12 18 C-15.94149075 16.02925463 -20.70246724 16.55564654 -25 17 C-27.84074462 18.33822159 -27.84074462 18.33822159 -29 21 C-29.64417942 26.06140975 -29.02629327 28.93790988 -26 33 C-23.30350019 34.74302645 -23.30350019 34.74302645 -20.1171875 36.0859375 C-18.94929688 36.62476563 -17.78140625 37.16359375 -16.578125 37.71875 C-15.34440373 38.27229266 -14.11002358 38.82436909 -12.875 39.375 C-0.69427024 44.84977961 11.72005192 50.68384929 17.1328125 63.73046875 C19.26274598 71.76089362 19.50302566 81.95844551 16 89.625 C11.29288557 97.34781449 3.93772487 103.22496302 -4.8671875 105.60009766 C-17.35454892 107.94147792 -32.03574317 107.9672535 -43 101 C-43.75023437 100.53078125 -44.50046875 100.0615625 -45.2734375 99.578125 C-51.13536882 95.52489368 -55.97128314 90.48202021 -59 84 C-56.01823222 81.97158654 -53.01751984 79.9748418 -50 78 C-49.33484375 77.56300781 -48.6696875 77.12601562 -47.984375 76.67578125 C-43.57600452 73.94450824 -43.57600452 73.94450824 -40.97265625 74.1953125 C-38.57200489 75.17458811 -37.76603003 76.23018817 -36.25 78.3125 C-32.34206984 83.0487944 -28.41144955 85.57296222 -22.25390625 86.34375 C-15.75746757 86.55530296 -11.02615237 85.82440888 -6.125 81.25 C-4.47983151 77.95966302 -4.55434376 75.62891507 -5 72 C-7.74712548 67.79717788 -10.44274364 65.95636865 -14.98046875 63.9140625 C-16.14513672 63.37523437 -17.30980469 62.83640625 -18.50976562 62.28125 C-19.73504347 61.72776186 -20.96095973 61.17568492 -22.1875 60.625 C-35.05064353 54.82166056 -44.84489972 49.6927345 -51.10546875 36.70703125 C-53.80019528 28.55224747 -52.78185203 18.66569769 -49.1171875 11.0078125 C-45.06576534 3.72658526 -38.78506302 -0.06099781 -31.15625 -3.15234375 C-20.98114974 -5.885013 -9.39591353 -4.6620945 0 0 Z " fill="#FCFDFE" transform="translate(241,151)"/>
<path d="M0 0 C27.72 0 55.44 0 84 0 C84 6.6 84 13.2 84 20 C73.77 20 63.54 20 53 20 C53 49.04 53 78.08 53 108 C45.74 108 38.48 108 31 108 C31 78.96 31 49.92 31 20 C20.77 20 10.54 20 0 20 C0 13.4 0 6.8 0 0 Z " fill="#FDFDFE" transform="translate(92,148)"/>
</svg>
